<svg id="Capa_1" enable-background="new 0 0 320.943 320.943" height="512" viewBox="0 0 320.943 320.943" width="512" xmlns="http://www.w3.org/2000/svg"><path id="path-1_23_" d="m38.58 260.766h18.511v20.059h-18.511z" transform="translate(1.923 13)"/><path id="path-1_22_" d="m112.645 260.766h18.511v20.059h-18.511z" transform="translate(5.616 13)"/><path id="path-1_21_" d="m75.612 260.766h18.511v20.059h-18.511z" transform="translate(3.769 13)"/><path d="m0 270.795c0 5.544 4.486 10.029 10.029 10.029h10.029v-20.059h-20.058z"/><path id="path-2_16_" d="m0 112.646h20.059v18.511h-20.059z" transform="translate(0 5.616)"/><path id="path-2_15_" d="m0 75.613h20.059v18.511h-20.059z" transform="translate(0 3.77)"/><path id="path-2_14_" d="m0 186.711h20.059v18.511h-20.059z" transform="translate(0 9.308)"/><path id="path-2_13_" d="m0 223.743h20.059v18.511h-20.059z" transform="translate(0 11.154)"/><path id="path-2_12_" d="m0 38.581h20.059v18.511h-20.059z" transform="translate(0 1.923)"/><path id="path-2_11_" d="m0 149.678h20.059v18.511h-20.059z" transform="translate(0 7.462)"/><path d="m0 10.03v10.03h20.059v-20.059h-10.03c-5.543 0-10.029 4.486-10.029 10.029z"/><path id="path-1_20_" d="m149.667.001h18.511v20.059h-18.511z" transform="translate(7.461)"/><path id="path-1_19_" d="m223.733.001h18.511v20.059h-18.511z" transform="translate(11.154)"/><path id="path-1_18_" d="m186.7.001h18.511v20.059h-18.511z" transform="translate(9.308)"/><path id="path-1_17_" d="m75.603.001h18.511v20.059h-18.511z" transform="translate(3.769)"/><path id="path-1_16_" d="m38.57.001h18.511v20.059h-18.511z" transform="translate(1.923)"/><path id="path-1_15_" d="m112.635.001h18.511v20.059h-18.511z" transform="translate(5.615)"/><path d="m280.822 10.03c0-5.544-4.486-10.029-10.029-10.029h-10.029v20.059h20.059v-10.03z"/><path id="path-2_10_" d="m260.764 75.604h20.059v18.511h-20.059z" transform="translate(13 3.769)"/><path id="path-2_7_" d="m260.764 38.571h20.059v18.511h-20.059z" transform="translate(13 1.923)"/><path id="path-2_8_" d="m260.764 112.636h20.059v18.511h-20.059z" transform="translate(13 5.615)"/><path id="path-2_9_" d="m260.764 149.669h20.059v18.511h-20.059z" transform="translate(13 7.461)"/><path d="m318.003 263.704-120.353-120.353c-2.86-2.86-7.179-3.722-10.93-2.174s-6.19 5.211-6.19 9.265v160.471c0 3.859 2.214 7.365 5.681 9.04 1.391.666 2.87.989 4.349.989 2.233 0 4.456-.744 6.268-2.194l47.395-37.924h66.69c4.055 0 7.718-2.439 9.265-6.19 1.556-3.751.694-8.06-2.175-10.93zm-77.297-2.938c-2.282 0-4.486.774-6.269 2.194l-33.849 27.081v-115.387l86.112 86.112z"/></svg>